<?xml version="1.0" standalone="no"?>
<!DOCTYPE svg PUBLIC "-//W3C//DTD SVG 1.1//EN" "http://www.w3.org/Graphics/SVG/1.1/DTD/svg11.dtd" >
<svg xmlns="http://www.w3.org/2000/svg">
<metadata>
This is a custom SVG webfont generated by Font Squirrel.
Copyright   : Copyright c 2009 by Tour De Force  Slobodan Jelesijevic All rights reserved
Designer    : Slobodan Jelesijevic
Foundry     : Tour De Force  Slobodan Jelesijevic
Foundry URL : httpwwwtourdefontscom
</metadata>
<defs>
<font id="OblikBold" horiz-adv-x="1189" >
<font-face units-per-em="2048" ascent="1638" descent="-410" />
<missing-glyph horiz-adv-x="616" />
<glyph unicode=" "  horiz-adv-x="616" />
<glyph unicode="&#x09;" horiz-adv-x="616" />
<glyph unicode="&#xa0;" horiz-adv-x="616" />
<glyph unicode="!" horiz-adv-x="657" d="M195 1434h268l-31 -1086h-205zM201 0h256v258h-256v-258z" />
<glyph unicode="&#x22;" horiz-adv-x="808" d="M133 1434h180l-14 -439h-156zM496 1434h180l-14 -439h-156z" />
<glyph unicode="#" horiz-adv-x="1263" d="M72 428v182h211l30 219h-241v183h270l66 456h184l-68 -456h295l66 456h186l-65 -456h186v-183h-213l-33 -219h246v-182h-272l-64 -457h-190l69 457h-293l-67 -457h-187l68 457h-184zM469 610h291l33 219h-295z" />
<glyph unicode="$" horiz-adv-x="1138" d="M63 1063q0 164 140 285q113 92 291 106v176h149v-178q158 -14 338 -66v-249h-37q-123 49 -301 65v-334q188 -63 270 -116q162 -115 162 -336q0 -186 -141 -303q-119 -98 -291 -125v-185h-149v174q-197 0 -424 74v252h32q219 -76 392 -76v398q-119 37 -197 73 q-111 55 -172.5 151.5t-61.5 213.5zM332 1069q0 -88 162 -149v282q-162 -24 -162 -133zM643 244q166 43 164 168q-2 111 -164 168v-336z" />
<glyph unicode="%" horiz-adv-x="1646" d="M133 1089.5q0 165.5 81 266t218 100.5t218 -100.5t81 -266t-81 -265t-218 -99.5t-218 99.5t-81 265zM289 1087.5q0 -92.5 38 -159t105.5 -66.5t105 66.5t37.5 159t-37.5 159t-105 66.5t-105.5 -66.5t-38 -159zM336 -27l799 1493h147l-793 -1493h-153zM915 342 q0 166 81 266.5t218.5 100.5t218 -100.5t80.5 -266.5t-80.5 -265.5t-218 -99.5t-218.5 99.5t-81 265.5zM1071 340q0 -92 38 -158.5t105.5 -66.5t105.5 66.5t38 158.5t-38 158.5t-105.5 66.5t-105.5 -66.5t-38 -158.5z" />
<glyph unicode="&#x26;" horiz-adv-x="1390" d="M115 420q0 256 262 416q0 4 -8 12q-106 135 -105 266q6 147 92 234q98 109 283 108q166 0 258 -104q90 -104 84 -244q-2 -78 -37 -140.5t-72.5 -95t-117.5 -88.5l198 -243q18 53 19 143h237q-10 -205 -73 -362l266 -324h-328l-98 115q-166 -135 -373 -136 q-205 0 -346 121t-141 322zM350 430q-4 -94 55.5 -155.5t157.5 -63.5q174 -8 262 84l-297 362q-61 -37 -88.5 -58t-57.5 -66.5t-32 -102.5zM518 1114q0 -12 2 -23.5t9.5 -24.5t11.5 -21.5t15 -22.5t16.5 -20.5t17.5 -20.5t16 -18q49 29 68.5 40t45 41.5t25.5 63.5 q4 49 -24.5 89t-81.5 42q-55 2 -88 -36t-33 -89z" />
<glyph unicode="'" horiz-adv-x="446" d="M133 1434h180l-14 -439h-156z" />
<glyph unicode="(" horiz-adv-x="751" d="M135 483q4 164 38 306.5t101.5 270.5t181 224t265.5 152v-172q-168 -113 -254 -333t-84 -448q0 -242 82 -462t256 -336v-181q-303 113 -449.5 376t-136.5 603z" />
<glyph unicode=")" horiz-adv-x="751" d="M31 -315q174 117 256 337t82 461q2 227 -84 447.5t-254 333.5v172q152 -55 265.5 -151.5t181 -224.5t101 -270.5t37.5 -306.5q10 -340 -136 -603t-449 -376v181z" />
<glyph unicode="*" horiz-adv-x="1038" d="M133 989l264 109l-264 110l84 154l242 -164l-27 305h174l-26 -305l239 164l86 -154l-262 -110l262 -109l-86 -153l-239 161l24 -301h-174l29 301l-242 -161z" />
<glyph unicode="+" horiz-adv-x="1222" d="M133 616v187h387v387h182v-387h388v-187h-388v-385h-182v385h-387z" />
<glyph unicode="," horiz-adv-x="708" d="M92 -332l162 604h281l-267 -604h-176z" />
<glyph unicode="-" horiz-adv-x="985" d="M133 428v219h719v-219h-719z" />
<glyph unicode="." horiz-adv-x="663" d="M195 0v272h274v-272h-274z" />
<glyph unicode="/" horiz-adv-x="604" d="M10 -27l428 1491h156l-432 -1491h-152z" />
<glyph unicode="0" horiz-adv-x="1402" d="M92 717q0 336 167 537.5t441 201.5q276 0 443.5 -201.5t167.5 -537.5t-167 -538t-444 -202q-274 0 -441 202t-167 538zM358 714.5q0 -233.5 92.5 -370.5t247.5 -137q158 0 250 137t92 370.5t-93 372t-248.5 138.5t-248 -138.5t-92.5 -372z" />
<glyph unicode="1" horiz-adv-x="870" d="M51 1161l238 201q100 86 211 86q176 0 176 -195v-1253h-260v1180l-213 -189z" />
<glyph unicode="2" horiz-adv-x="1015" d="M31 0v168l557 700q68 92 67 162q2 92 -70.5 146.5t-164.5 54.5q-182 0 -277 -86h-30v235q166 76 342 76q236 -4 370 -147q98 -106 98.5 -278.5t-106.5 -293.5l-442 -512h547v-225h-891z" />
<glyph unicode="3" horiz-adv-x="1028" d="M31 51v238h32q166 -94 338 -90q94 -2 175 62.5t81 160.5q0 82 -54 135t-123.5 70.5t-155.5 17.5h-109v223h74q57 0 99 5.5t93 20.5t79 53t28 97q0 86 -69.5 138.5t-156.5 52.5q-174 0 -272 -70h-33v230q168 61 314 61q121 0 228.5 -41t181 -132t73.5 -216 q0 -92 -54.5 -179t-144.5 -116q111 -35 191 -132t80 -218q0 -215 -160 -330t-393 -115q-160 0 -342 74z" />
<glyph unicode="4" horiz-adv-x="1148" d="M29 395q-37 70 2 140l542 817q63 96 205 96q82 0 128 -58.5t46 -142.5v-690h146v-235h-146v-322h-260v322h-530q-92 -1 -133 73zM303 557h389v584z" />
<glyph unicode="5" horiz-adv-x="1054" d="M72 49v250h32q127 -90 320 -90q123 0 199.5 72.5t76.5 199.5q0 133 -106.5 193.5t-257.5 60.5h-219v699h803v-226h-543v-252q211 0 344 -67q115 -61 178.5 -172t63.5 -246q0 -225 -171 -359.5t-411 -134.5q-116 0 -309 72z" />
<glyph unicode="6" horiz-adv-x="1210" d="M94 676q4 287 133 498q172 279 502 282q158 0 324 -86v-229h-33q-123 90 -293 90q-123 0 -215 -79t-129 -204q84 82 270.5 82t327.5 -135q147 -154 147 -385q0 -229 -147 -383q-139 -150 -369 -150q-129 0 -239.5 62.5t-177.5 177.5q-109 178 -101 459zM358 492 q0 -123 81 -208t202 -81q109 16 165 99t56 204q0 125 -69.5 214t-196.5 83q-117 -6 -177.5 -93t-60.5 -218z" />
<glyph unicode="7" horiz-adv-x="917" d="M10 1208v226h688q133 0 174 -91q27 -59 -14 -161l-496 -1182h-282l516 1208h-586z" />
<glyph unicode="8" horiz-adv-x="1304" d="M113 424q0 123 70.5 219t191.5 127q-90 23 -143.5 109t-51.5 176q2 190 139.5 295.5t333.5 105.5q203 0 337 -108.5t136 -292.5q2 -98 -48 -177t-144 -108q117 -31 185.5 -125t72.5 -217q-12 -217 -165 -334t-368 -117q-217 0 -381.5 121t-164.5 326zM377 428 q0 -109 77.5 -170t196.5 -61q121 0 199 61t78 170q0 102 -80 168t-196.5 66t-195.5 -66t-79 -168zM438 1042q0 -86 62.5 -140t152.5 -54t152.5 54t62.5 140q0 92 -61.5 143.5t-153.5 51.5t-153.5 -51.5t-61.5 -143.5z" />
<glyph unicode="9" horiz-adv-x="1210" d="M84 924q0 229 147 383q139 150 369 149q129 0 239.5 -62.5t178.5 -176.5q109 -178 100 -459q-4 -287 -133 -498q-172 -279 -502 -283q-158 0 -323 86v230h33q123 -90 292 -90q123 0 215.5 78.5t128.5 203.5q-84 -82 -270 -82t-328 136q-147 154 -147 385zM350 928 q0 -125 69.5 -214t196.5 -83q117 6 177.5 93t60.5 218q0 123 -81 208t-202 81q-109 -16 -165 -99t-56 -204z" />
<glyph unicode=":" horiz-adv-x="663" d="M195 0v272h274v-272h-274zM195 799v274h274v-274h-274z" />
<glyph unicode=";" horiz-adv-x="708" d="M92 -332l162 604h281l-267 -604h-176zM260 799v274h275v-274h-275z" />
<glyph unicode="&#x3c;" horiz-adv-x="1165" d="M133 623v186l899 410v-205l-657 -295l657 -297v-205z" />
<glyph unicode="=" horiz-adv-x="1224" d="M133 438v185h959v-185h-959zM133 811v184h959v-184h-959z" />
<glyph unicode="&#x3e;" horiz-adv-x="1165" d="M133 217v205l658 297l-658 295v205l899 -410v-186z" />
<glyph unicode="?" horiz-adv-x="1017" d="M113 1114v234q186 109 348 108q168 0 295 -94q139 -113 139 -283q0 -96 -43 -179t-119 -132q-25 -18 -96.5 -54t-95.5 -61q-47 -43 -47 -155v-156h-240v182q8 139 53 217q10 18 22.5 34t30 31t25.5 23.5t32.5 22.5t30 18t37 20.5t35.5 18.5q115 70 115 166 q0 72 -61.5 107t-139.5 35q-166 0 -280 -103h-41zM246 0v256h256v-256h-256z" />
<glyph unicode="@" horiz-adv-x="2134" d="M133 471q0 266 118 483t339 347.5t506 130.5q281 0 489.5 -130.5t312 -346.5t103.5 -484q0 -252 -125 -471h-657v61q-94 -86 -248 -86q-145 0 -236.5 83t-91.5 227q6 115 72.5 194.5t193.5 100.5l310 51q-6 61 -76 91t-137 30q-139 0 -248 -58h-29v213q160 45 281 45 q178 0 300 -75.5t122 -243.5v-516h350q80 160 80 354q0 354 -205 588.5t-565 234.5q-365 0 -594.5 -237.5t-229.5 -585.5t223.5 -579.5t600.5 -239.5q168 -6 321 49l60 -129q-166 -66 -377 -59q-295 6 -516.5 135t-334 343t-112.5 480zM870 299q-2 -61 37 -89t103 -28 q98 0 207 64v205q-37 -6 -118 -18.5t-122 -20.5q-107 -21 -107 -113z" />
<glyph unicode="A" horiz-adv-x="1396" d="M10 0l496 1323q20 57 73.5 92t117 35t114.5 -35t74 -92l501 -1323h-292l-123 334h-561l-125 -334h-275zM498 578h385l-193 536z" />
<glyph unicode="B" horiz-adv-x="1374" d="M184 0v1155q0 115 81 197t198 82h151h44h49q12 0 44.5 -1t48 -3.5t44 -5.5t46 -8l42 -12t45 -17.5t39.5 -22.5q180 -117 180 -311q0 -102 -48 -181t-147 -104q260 -68 261 -334q0 -164 -109 -284q-135 -150 -448 -150h-521zM459 246h250q133 0 199.5 39t68.5 166 q0 49 -17.5 84.5t-43 55t-67.5 31t-79 14.5t-88 3h-223v-393zM459 868h196q47 0 72 1t67 9.5t64.5 24t39.5 48t17 77.5q0 94 -61 127t-192 33h-140q-27 0 -45 -20.5t-18 -51.5v-248z" />
<glyph unicode="C" horiz-adv-x="1226" d="M92 725q0 305 184 516q190 215 517 215q176 -2 376 -74v-262h-32q-154 84 -344 84h-12q-185 0 -298 -133q-106 -133 -106 -354q0 -227 110 -359q113 -129 298 -129h12q188 0 342 84h37v-260q-201 -74 -377 -76q-305 0 -484 177q-223 211 -223 571z" />
<glyph unicode="D" horiz-adv-x="1449" d="M184 0v1157q0 115 82 196t197 81h205q205 -2 344 -56.5t229 -193.5q121 -180 121 -455q0 -313 -148 -512q-168 -217 -526 -217h-504zM461 252h192q74 0 123 4t111.5 27.5t99.5 66.5q90 106 90 369q0 221 -63 325q-47 84 -130 111t-204 27h-154q-27 0 -46 -18.5t-19 -45.5 v-866z" />
<glyph unicode="E" horiz-adv-x="1208" d="M184 0v1157q0 115 81 196t196 81h717v-250h-652q-27 0 -46 -18.5t-19 -45.5v-246h530v-239h-530v-385h717v-250h-994z" />
<glyph unicode="F" horiz-adv-x="1191" d="M184 0v1157q0 115 82 196t197 81h719v-250h-656q-27 0 -46 -18.5t-19 -45.5v-248h530v-247h-530v-625h-277z" />
<glyph unicode="G" horiz-adv-x="1413" d="M92 717q0 268 139 465q186 270 566 274q201 0 411 -74v-254h-34q-154 78 -365 78q-227 0 -344 -164q-88 -127 -88 -327q0 -231 120.5 -360.5t350.5 -129.5q88 0 156 21v276h-256v246h532v-721q-244 -68 -471 -70q-348 0 -541 222q-176 203 -176 518z" />
<glyph unicode="H" horiz-adv-x="1540" d="M195 0v1434h276v-560h602v560h273v-1434h-273v625h-602v-625h-276z" />
<glyph unicode="I" horiz-adv-x="665" d="M195 0v1434h276v-1434h-276z" />
<glyph unicode="J" horiz-adv-x="696" d="M10 0h66q94 2 127 51t33 154v979h-160v250h436v-1176q0 -246 -101.5 -377t-326.5 -131h-74v250z" />
<glyph unicode="K" horiz-adv-x="1425" d="M195 0v1434h276v-564v-2l539 566h356l-590 -590l660 -844h-351l-497 657l-117 -120v-537h-276z" />
<glyph unicode="L" horiz-adv-x="1017" d="M184 281v1153h277v-1119q0 -27 18.5 -46t44.5 -19h484v-250h-541q-117 0 -200 83t-83 198z" />
<glyph unicode="M" horiz-adv-x="1824" d="M164 0l65 1266q2 74 54.5 128t126.5 56h6q66 0 119 -40q55 -42 77 -107l303 -918l293 918q45 145 193 145q82 0 135 -50t59 -134l66 -1264h-270l-41 965l-308 -965h-270l-309 946l-51 -946h-248z" />
<glyph unicode="N" horiz-adv-x="1564" d="M195 0v1262q0 76 46 131t119 57q121 0 201 -121l559 -876v981h250v-1434h-264l-662 1038v-1038h-249z" />
<glyph unicode="O" horiz-adv-x="1544" d="M94 717q0 334 189.5 536.5t488.5 202.5t489.5 -202.5t190.5 -536.5t-190.5 -537t-489.5 -203t-488.5 203t-189.5 537zM379 717q0 -225 106.5 -356.5t286.5 -131.5t287.5 131.5t107.5 356.5q0 207 -109.5 348t-285.5 141q-180 0 -286.5 -132t-106.5 -357z" />
<glyph unicode="P" horiz-adv-x="1292" d="M184 0v1155q0 115 82 197t197 82h190q16 0 58.5 -1t61 -2t55 -4.5t60 -8.5t54.5 -14t59 -24q106 -51 163 -160.5t57 -236.5q0 -262 -191 -379q-137 -86 -375 -86h-194v-518h-277zM461 764h209q115 0 191.5 51t76.5 162q0 131 -65.5 172t-213.5 41h-163q-35 0 -35 -68 v-358z" />
<glyph unicode="Q" horiz-adv-x="1540" d="M94 717q0 334 189.5 536.5t488.5 202.5t489.5 -202.5t190.5 -536.5q0 -250 -111.5 -431.5t-302.5 -258.5q68 -102 105 -105q41 0 143 103l144 -168q-61 -59 -86 -81t-83.5 -51.5t-113.5 -29.5h-5q-179 0 -341 282h-29q-299 0 -488.5 203t-189.5 537zM379 717 q0 -225 106.5 -356.5t286.5 -131.5t287.5 131.5t107.5 356.5q0 207 -109.5 348t-285.5 141q-180 0 -286.5 -132t-106.5 -357z" />
<glyph unicode="R" horiz-adv-x="1372" d="M184 0v1155q0 115 83 197t200 82h186q16 0 59.5 -1t62 -2t55 -4.5t60 -8.5t54.5 -14t60 -24q106 -51 162.5 -160.5t56.5 -236.5q-4 -262 -189 -379q-55 -33 -98 -45l399 -559h-336l-358 518h-180v-518h-277zM461 764h213q113 0 189.5 50t76.5 159q0 121 -64.5 169 t-213.5 48h-138q-27 0 -45 -20.5t-18 -47.5v-358z" />
<glyph unicode="S" horiz-adv-x="1138" d="M63 1063q0 164 140 285q127 104 332 108q201 0 446 -70v-249h-37q-180 70 -393 69q-82 0 -150.5 -32.5t-68.5 -104.5q0 -23 9 -42t27.5 -35.5t36 -29t47 -24.5t48 -19.5t51.5 -18.5t43 -15q231 -74 319 -133q162 -115 162 -336q0 -186 -141 -303q-162 -135 -438 -136 q-199 0 -426 74v252h32q219 -76 396 -76q49 0 97 8.5t99 27t82 57t31 92.5q-2 119 -184 174q-242 72 -326 112q-111 55 -172.5 151.5t-61.5 213.5z" />
<glyph unicode="T" horiz-adv-x="1085" d="M10 1184v250h1065v-250h-397v-1184h-277v1184h-391z" />
<glyph unicode="U" horiz-adv-x="1468" d="M174 621v813h277v-897q0 -143 53 -220q74 -90 241 -90q164 0 246 107q53 78 53 201v899h250v-813q0 -152 -20.5 -253.5t-87.5 -191.5q-76 -102 -198 -150.5t-255 -48.5q-147 0 -273 59.5t-198 170.5q-88 135 -88 414z" />
<glyph unicode="V" horiz-adv-x="1310" d="M10 1434h295l361 -1088l368 1088h266l-458 -1317q-47 -129 -180 -133q-63 0 -115.5 35.5t-77.5 97.5z" />
<glyph unicode="W" horiz-adv-x="1826" d="M20 1434h283l244 -981l231 981h281l239 -992l248 992h260l-338 -1311q-16 -61 -66 -103q-48 -39 -108 -39q-3 0 -6 1q-63 2 -111.5 43t-64.5 104l-201 823l-188 -829q-14 -59 -61.5 -99t-110.5 -42q-3 0 -6 -1q-64 0 -115 41q-53 42 -70 107z" />
<glyph unicode="X" horiz-adv-x="1370" d="M10 0l518 797l-415 637h323l258 -424l267 424h299l-416 -643l516 -791h-328l-358 578l-361 -578h-303z" />
<glyph unicode="Y" horiz-adv-x="1228" d="M10 1434h312l305 -625l307 625h-2h287l-465 -885v-549h-277v549z" />
<glyph unicode="Z" horiz-adv-x="1134" d="M51 0v176l707 1008h-658v250h756q66 0 125 -29t84 -84q16 -39 16 -80q0 -58 -32 -119l-615 -872h647v-250h-1030z" />
<glyph unicode="[" horiz-adv-x="743" d="M195 -492v1926h518v-213h-273v-1500h273v-213h-518z" />
<glyph unicode="\" horiz-adv-x="604" d="M10 1464h156l428 -1491h-152z" />
<glyph unicode="]" horiz-adv-x="743" d="M31 -279h272v1500h-272v213h518v-1926h-518v213z" />
<glyph unicode="^" horiz-adv-x="1128" d="M133 754l338 741h186l338 -741h-204l-228 499l-225 -499h-205z" />
<glyph unicode="_" horiz-adv-x="1288" d="M-10 -276h1308v-185h-1308v185z" />
<glyph unicode="`" horiz-adv-x="651" d="M133 1458h207l178 -307h-158z" />
<glyph unicode="a" horiz-adv-x="1153" d="M84 334q0 137 88 229q90 94 221 113l352 51q-6 70 -88 105.5t-155 35.5q-154 0 -285 -63h-29v237q190 53 318 54q207 0 347 -87t146 -276v-733h-249v98q-117 -123 -289 -123q-160 0 -266 99q-111 102 -111 260zM346 342q0 -70 45 -103.5t117 -33.5q111 0 231 74v241 q-39 -8 -129 -20.5t-139 -22.5q-125 -24 -125 -135z" />
<glyph unicode="b" d="M154 238v1263h260v-459q84 53 207 54q231 0 374 -166q104 -135 113 -377q0 -205 -80 -346q-135 -223 -442 -230h-174q-106 0 -182 76t-76 185zM414 268q0 -25 18.5 -42t42.5 -17h86q139 0 205 65q74 76 74 279v19q0 116 -47 194q-57 92 -197 98q-68 0 -182 -26v-570z" />
<glyph unicode="c" horiz-adv-x="995" d="M82 537q0 242 137 395q143 164 383 164q154 0 330 -72v-231h-33q-90 72 -281 71q-139 0 -206 -90q-61 -84 -62 -239q0 -113 45 -195q72 -131 219 -131q178 0 289 61h31v-221q-145 -72 -324 -72q-129 0 -242.5 59.5t-185.5 162.5q-100 141 -100 338z" />
<glyph unicode="d" d="M80 553q6 238 115 377q143 166 374 166q123 0 207 -54v459h260v-1263q0 -109 -75.5 -185t-182.5 -76h-174q-307 6 -442 230q-82 143 -82 346zM350 553q0 -203 74 -279q66 -66 205 -65h86q25 0 43 17.5t18 41.5v570q-115 27 -182 26q-139 -6 -197 -98q-47 -78 -47 -194 v-19z" />
<glyph unicode="e" horiz-adv-x="1167" d="M82 530q6 225 119 381q141 184 383 185q150 0 260 -69t166 -202q54 -132 54 -335q0 -27 -1 -56h-703q18 -119 114 -179q89 -57 203 -57q8 0 15 1q176 4 283 67h33v-243q-152 -45 -336 -46q-268 0 -426 144q-164 149 -164 409zM362 649h437q-20 219 -211 221 q-98 0 -157 -62.5t-69 -158.5z" />
<glyph unicode="f" horiz-adv-x="704" d="M31 848v225h114v31q0 199 90.5 298t280.5 99q51 0 219 -39v-229h-35q-72 39 -149 39h-8q-57 0 -97 -34t-40 -99v-66h272v-225h-272v-848h-261v848h-114z" />
<glyph unicode="g" horiz-adv-x="1200" d="M82 518q0 209 82 348q135 225 452 230h166q109 0 187 -78t78 -184v-781q0 -281 -137.5 -411.5t-413.5 -133.5q-131 0 -316 68v225h33q115 -55 285 -63q121 0 204.5 64.5t83.5 164.5v62q-88 -51 -206 -52q-236 0 -383 166q-115 146 -115 375zM350 518q0 -141 53 -219 q61 -96 195 -96q96 0 188 24v574q0 27 -18 45t-43 18h-92q-133 0 -205 -69q-74 -72 -78 -277z" />
<glyph unicode="h" horiz-adv-x="1265" d="M164 0v1501h260v-495q162 90 309 90q164 0 271.5 -113t107.5 -285v-698h-260v676q0 84 -40 135t-122 51q-139 0 -266 -84v-778h-260z" />
<glyph unicode="i" horiz-adv-x="589" d="M164 0v1073h260v-1073h-260zM164 1178v256h262v-256h-262z" />
<glyph unicode="j" horiz-adv-x="610" d="M-31 -260v-232q246 0 361.5 115t115.5 367v1083h-393v-225h133v-901q0 -115 -50 -161t-167 -46zM182 1178v256h262v-256h-262z" />
<glyph unicode="k" horiz-adv-x="1202" d="M164 0v1501h260v-772l381 344h364l-464 -401l487 -672h-322l-362 502l-84 -72v-430h-260z" />
<glyph unicode="l" horiz-adv-x="722" d="M154 379v1120h260v-1165q0 -127 141 -127h5q57 0 151 47h32v-229q-137 -47 -219 -48q-370 1 -370 402z" />
<glyph unicode="m" horiz-adv-x="1681" d="M164 0v1073h254v-72q94 94 207 95h5q162 0 263 -123q137 125 270 125q166 0 264.5 -115t100.5 -289v-694h-260v657q0 53 -6.5 91t-35.5 72q-28 32 -75 32h-6q-74 -2 -168 -104v-748h-256v657q0 195 -117 195q-86 0 -180 -86v-766h-260z" />
<glyph unicode="n" horiz-adv-x="1265" d="M164 0v1073h252v-69q184 92 313 92q170 0 276.5 -111t106.5 -289v-696h-260v670q2 82 -39 134t-123 52q-137 0 -266 -88v-768h-260z" />
<glyph unicode="o" d="M82 537q0 254 142.5 406.5t371.5 152.5t369.5 -152.5t140.5 -406.5t-140.5 -407t-369.5 -153t-371.5 153t-142.5 407zM350 536.5q0 -149.5 66.5 -238.5t177.5 -89t177.5 89t66.5 238.5t-66.5 238.5t-177.5 89t-177.5 -89t-66.5 -238.5z" />
<glyph unicode="p" horiz-adv-x="1200" d="M164 -492v1326q0 109 75.5 184.5t182.5 75.5h174q307 -6 442 -230q80 -141 80 -346q-8 -242 -112 -377q-143 -166 -375 -166q-123 0 -207 54v-521h-260zM424 233q115 -27 182 -26q139 6 197 98q47 78 47 194v19q0 203 -74 279q-66 66 -205 65h-86q-25 0 -43 -17.5 t-18 -41.5v-570z" />
<glyph unicode="q" d="M82 518q0 205 80 346q135 223 442 230h174q106 0 182 -76t76 -184v-1326h-260v521q-84 -53 -207 -54q-231 0 -374 166q-105 135 -113 377zM350 518v-19q0 -116 47 -194q57 -92 197 -98q68 0 182 26v570q0 25 -18.5 42t-42.5 17h-86q-139 0 -205 -65q-74 -76 -74 -279z " />
<glyph unicode="r" horiz-adv-x="735" d="M164 0v1073h252v-69q180 92 350 92v-246h-35q-43 14 -89 14q-33 0 -68 -7q-83 -17 -150 -60v-797h-260z" />
<glyph unicode="s" horiz-adv-x="950" d="M82 788q0 145 112 228q109 80 249 80h8q143 -2 329 -58v-219h-35q-127 49 -262 49q-29 0 -59.5 -4t-63 -20.5t-32.5 -44.5q0 -23 32.5 -45.5t71.5 -34.5q27 -10 86.5 -29.5t105.5 -38t83 -37.5q162 -80 161 -284q0 -172 -133 -262.5t-319 -90.5q-150 0 -324 54v229h33 q139 -57 301 -57q197 6 197 114q0 25 -26 47.5t-44 30.5t-59 23q-229 86 -261 102q-72 37 -111.5 110.5t-39.5 157.5z" />
<glyph unicode="t" horiz-adv-x="714" d="M10 848v225h117v252h260v-252h275v-225h-275v-506q0 -66 40 -99.5t101 -33.5h5q49 0 151 43h41v-227q-137 -47 -227 -48q-371 0 -371 398v473h-117z" />
<glyph unicode="u" horiz-adv-x="1198" d="M115 375v698h260v-672q-2 -82 39 -134t123 -52q137 0 266 88v770h260v-1073h-252v68q-184 -92 -313 -93q-168 0 -275.5 115t-107.5 285z" />
<glyph unicode="v" horiz-adv-x="1058" d="M10 1073h279l254 -760l260 760h246l-353 -977q-45 -113 -164 -116q-61 0 -106 29.5t-66 82.5z" />
<glyph unicode="w" horiz-adv-x="1546" d="M20 1073h263l211 -727l188 727h186l201 -751l213 751h244l-299 -975q-37 -119 -170 -118q-61 2 -108.5 32.5t-61.5 85.5l-117 469l-115 -465q-14 -55 -60 -87.5t-103 -34.5q-59 0 -110.5 32.5t-66.5 85.5z" />
<glyph unicode="x" horiz-adv-x="1142" d="M10 0l408 580l-348 493h317l203 -315l209 315h280l-352 -502l406 -571h-318l-258 397l-262 -397h-285z" />
<glyph unicode="y" horiz-adv-x="1134" d="M10 1073h285l305 -721l262 721h242l-473 -1304q-57 -150 -166 -205.5t-303 -55.5h-47v226h27q139 0 192 19q57 22 94 122l49 135z" />
<glyph unicode="z" horiz-adv-x="960" d="M51 0v147l514 701h-489v225h663q109 0 150 -69q18 -31 18 -65q0 -9 -2 -19q-6 -45 -35 -84l-442 -611h481v-225h-858z" />
<glyph unicode="{" horiz-adv-x="868" d="M31 365v213h159q109 0 109 104v446q8 150 80 220q88 86 272 86h166v-213h-160q-55 0 -79 -21q-25 -23 -29 -80v-450q0 -55 -35 -114.5t-82 -84.5q53 -31 85 -85t32 -114v-444q0 -55 22 -78q23 -25 86 -33h160v-209h-166q-209 0 -293 109q-51 70 -59 195v446 q0 55 -25.5 81t-83.5 26h-159z" />
<glyph unicode="|" horiz-adv-x="559" d="M195 -492v1995h170v-1995h-170z" />
<glyph unicode="}" horiz-adv-x="868" d="M51 -283h160q63 8 86 33q23 23 22 78v444q0 59 32 113.5t85 85.5q-47 25 -82 84t-35 115v450q-4 57 -28 80q-25 20 -80 21h-160v213h166q184 0 272 -86q72 -70 80 -220v-446q0 -104 109 -104h160v-213h-160q-57 0 -83 -26t-26 -81v-446q-8 -125 -59 -195 q-84 -109 -293 -109h-166v209z" />
<glyph unicode="~" horiz-adv-x="1302" d="M133 539v204q121 135 287 136q106 0 299 -80q141 -53 186 -54q133 0 264 144v-219q-133 -127 -290 -127q-84 0 -242 65q-162 68 -238 68q-135 0 -266 -137z" />
<glyph unicode="&#xa1;" horiz-adv-x="657" d="M195 -360l30 1085h205l33 -1085h-268zM201 815v258h256v-258h-256z" />
<glyph unicode="&#xa2;" horiz-adv-x="995" d="M82 537q0 242 137 395q133 150 346 162v176h150v-183q96 -14 217 -63v-231h-33q-57 47 -184 65v-643q115 14 188 55h31v-221q-96 -49 -219 -65v-181h-150v177q-242 23 -383 219q-100 141 -100 338zM350 535q0 -123 54.5 -211t160.5 -111v647q-215 -40 -215 -325z" />
<glyph unicode="&#xa3;" horiz-adv-x="1085" d="M51 250q90 0 125 21.5t51 109.5l33 225h-209v238h244l35 215q27 180 167 288.5t324 108.5q117 0 234 -53v-244h-43q-61 45 -174 45q-88 0 -155 -49t-81 -135l-27 -176h347v-238h-385l-29 -217q-6 -39 -31.5 -80t-56.5 -59h635v-250h-1002z" />
<glyph unicode="&#xa4;" horiz-adv-x="1314" d="M133 342l154 152q-72 109 -72 239.5t72 243.5l-154 149l133 131l152 -151q109 72 239.5 72t239.5 -72l154 151l131 -131l-152 -149q72 -113 72 -244t-72 -239l152 -152l-131 -129l-154 147q-109 -70 -240 -69.5t-239 69.5l-152 -147zM393 734.5q0 -109.5 78 -187.5 q78 -80 188.5 -80t186.5 80q78 78 78 187.5t-78 189.5q-76 80 -186.5 80t-188.5 -80t-78 -189.5z" />
<glyph unicode="&#xa5;" horiz-adv-x="1228" d="M10 1434h312l305 -625l307 625h-2h287l-285 -543h196v-160h-280l-66 -121h346v-159h-376v-451h-277v451h-379v159h346l-63 121h-283v160h199z" />
<glyph unicode="&#xa6;" horiz-adv-x="561" d="M195 233h172v-725h-172v725zM195 776v725h172v-725h-172z" />
<glyph unicode="&#xa7;" horiz-adv-x="1099" d="M92 -172h41q213 -88 338 -88q111 -2 199 57.5t88 165.5q0 115 -121 168q-41 18 -163 63.5t-183 81.5q-193 125 -199 347q0 127 74 219v2q-74 104 -74 250q2 184 130 296.5t317 112.5q190 -2 389 -73v-238h-45q-170 78 -312 78q-82 0 -157.5 -44t-75.5 -118 q-2 -74 33 -109.5t112 -70.5q18 -8 159.5 -62.5t205.5 -103.5q160 -119 160 -324q0 -129 -72 -221q72 -106 72 -244q0 -227 -151.5 -346t-381.5 -119q-168 0 -383 74v246zM346.5 590q22.5 -55 75.5 -86q47 -29 100 -52.5t128 -50t102 -36.5q18 63 -5.5 118.5t-80.5 87.5 q-51 33 -164 72t-156 59q-22 -57 0.5 -112z" />
<glyph unicode="&#xa8;" horiz-adv-x="761" d="M92 1192v225h221v-225h-221zM444 1192v225h226v-225h-226z" />
<glyph unicode="&#xa9;" horiz-adv-x="1742" d="M133 715q0 307 216 524t521 217q307 0 523.5 -217t216.5 -524q0 -305 -216 -521.5t-524 -216.5q-305 0 -521 216.5t-216 521.5zM270 715q0 -248 175.5 -423t425 -175t427 175t177.5 423q0 250 -177.5 426t-427 176t-425 -176t-175.5 -426zM516 723q0 182 107 297 q106 127 299 127q90 0 219 -43v-154h-21q-86 43 -198 47q-121 0 -181 -73q-63 -78 -63 -207q0 -127 65 -207q66 -78 179 -78q125 8 200 53h21v-155q-109 -45 -219 -45q-174 0 -281 104q-127 121 -127 334z" />
<glyph unicode="&#xaa;" horiz-adv-x="862" d="M94 950q2 92 59.5 151.5t147.5 72.5l236 34q0 51 -55.5 74t-110.5 23q-96 0 -193 -45h-20v161q121 39 219 39q143 0 237.5 -57t92.5 -191v-491h-166v61q-82 -82 -197 -82q-115 2 -184.5 73t-65.5 177zM268 950q0 -88 115 -88q68 0 152 47v158q-137 -18 -185 -29 q-82 -14 -82 -88z" />
<glyph unicode="&#xab;" horiz-adv-x="1292" d="M133 535l359 487h210l-331 -487l331 -490h-210zM590 535l358 487h211l-332 -487l332 -490h-211z" />
<glyph unicode="&#xac;" horiz-adv-x="1277" d="M133 809v186h991v-575h-186v389h-805z" />
<glyph unicode="&#xad;" horiz-adv-x="985" d="M133 428v219h719v-219h-719z" />
<glyph unicode="&#xae;" horiz-adv-x="1746" d="M133 715q0 307 217 524t524 217q305 0 522.5 -217t217.5 -524q0 -305 -217 -521.5t-523 -216.5q-307 0 -524 216.5t-217 521.5zM260 715q0 -254 180.5 -434.5t434 -180.5t434 180.5t180.5 434.5q0 256 -179.5 435t-435.5 179q-254 0 -434 -180t-180 -434zM557 311v674 q0 68 47 116t115 48h125q8 0 33.5 -1t36 -1t32 -2t33.5 -5t30.5 -9.5t34.5 -14.5q61 -29 95.5 -92t34.5 -135q0 -154 -111 -223q-39 -23 -53 -27l231 -328h-197l-208 305h-121v-305h-158zM715 758h141q51 0 94 18q66 31 60 115q0 72 -41 94q-31 23 -121 23h-96 q-14 0 -25.5 -11.5t-11.5 -27.5v-211z" />
<glyph unicode="&#xaf;" horiz-adv-x="897" d="M92 1278v100h713v-100h-713z" />
<glyph unicode="&#xb0;" horiz-adv-x="1017" d="M133 1071q0 158 109.5 267.5t265.5 109.5t266.5 -109.5t110.5 -267.5q0 -156 -109.5 -265.5t-267.5 -109.5q-156 0 -265.5 108.5t-109.5 266.5zM295 1071q0 -90 61.5 -151.5t151.5 -61.5q92 0 153.5 61.5t61.5 151.5q0 92 -61.5 153.5t-153.5 61.5q-90 0 -151.5 -61.5 t-61.5 -153.5z" />
<glyph unicode="&#xb1;" horiz-adv-x="1224" d="M133 0v184h959v-184h-959zM133 641v184h387v387h185v-387h387v-184h-387v-387h-185v387h-387z" />
<glyph unicode="&#xb2;" horiz-adv-x="614" d="M72 721v82l280 356q31 37 37 82q0 47 -30.5 70.5t-75.5 23.5q-111 0 -154 -47h-18v127q84 43 174 43q115 0 184 -78q51 -57 47 -139q0 -82 -53 -149l-217 -252h276v-119h-450z" />
<glyph unicode="&#xb3;" horiz-adv-x="651" d="M92 748v122h14q80 -47 175 -47q47 0 87 32t40 81q0 53 -43 84q-47 27 -129 27h-54v112h39q152 0 152 92q0 41 -34 65.5t-77 24.5q-88 0 -141 -36h-19v122q80 31 160 31q96 0 169 -53t73 -148q0 -47 -27.5 -91t-70.5 -54q59 -18 94 -66.5t39 -109.5q0 -104 -78 -165.5 t-189 -61.5q-86 0 -180 39z" />
<glyph unicode="&#xb4;" horiz-adv-x="571" d="M92 1151l176 307h211l-231 -307h-156z" />
<glyph unicode="&#xb5;" horiz-adv-x="1267" d="M164 -492v1565h254v-665q0 -84 41 -136.5t123 -52.5q137 0 266 88v766h256v-1073h-250v74q-166 -94 -309 -94q-74 0 -127 49v-521h-254z" />
<glyph unicode="&#x3bc;" horiz-adv-x="1267" d="M164 -492v1565h254v-665q0 -84 41 -136.5t123 -52.5q137 0 266 88v766h256v-1073h-250v74q-166 -94 -309 -94q-74 0 -127 49v-521h-254z" />
<glyph unicode="&#xb6;" horiz-adv-x="1177" d="M10 1047q0 162 113 274.5t272 112.5h742v-179h-113v-1747h-186v1747h-203v-1747h-186v1154h-54q-160 0 -272.5 113.5t-112.5 271.5z" />
<glyph unicode="&#xb7;" horiz-adv-x="663" d="M195 580v272h274v-272h-274z" />
<glyph unicode="&#xb8;" horiz-adv-x="768" d="M133 -412l90 121q74 -51 150 -51q102 0 102 78q0 55 -79 82.5t-148 19.5l45 254l143 -26l-22 -125q211 -35 221 -201q0 -109 -76 -170.5t-182 -61.5q-127 0 -244 80z" />
<glyph unicode="&#xb9;" horiz-adv-x="557" d="M92 1309l121 104q49 45 102 45q88 -6 88 -104v-633h-127v588l-106 -90z" />
<glyph unicode="&#xba;" horiz-adv-x="880" d="M92 1079q0 176 95.5 277.5t242.5 101.5q156 0 257 -101.5t101 -277.5t-96 -276.5t-251.5 -100.5t-252 100.5t-96.5 276.5zM268 1079q0 -106 43 -164.5t127 -58.5t129 59.5t45 163.5q0 106 -45 166t-129 60q-170 -1 -170 -226z" />
<glyph unicode="&#xbb;" horiz-adv-x="1292" d="M133 45l332 490l-332 487h211l358 -487l-358 -490h-211zM590 45l332 490l-332 487h211l358 -487l-358 -490h-211z" />
<glyph unicode="&#xbc;" horiz-adv-x="1298" d="M92 1309l121 104q49 45 102 45q88 -6 88 -104v-633h-127v588l-106 -90zM170 -27l799 1493h141l-797 -1493h-143zM670 199q-23 37 4 73l272 414q29 47 94 47q41 0 67 -30.5t26 -71.5v-350h73v-119h-73v-162h-125v162h-269q-49 0 -69 37zM811 281h197v297z" />
<glyph unicode="&#xbd;" horiz-adv-x="1382" d="M92 1309l121 104q49 45 102 45q88 -6 88 -104v-633h-127v588l-106 -90zM170 -27l799 1493h141l-797 -1493h-143zM840 0v82l280 356q31 37 37 82q0 47 -30.5 70.5t-75.5 23.5q-111 0 -154 -47h-18v127q84 43 174 43q115 0 184 -78q51 -57 47 -139q0 -82 -53 -149 l-217 -252h276v-119h-450z" />
<glyph unicode="&#xbe;" horiz-adv-x="1370" d="M92 748v122h14q80 -47 175 -47q47 0 87 32t40 81q0 53 -43 84q-47 27 -129 27h-54v112h39q152 0 152 92q0 41 -34 65.5t-77 24.5q-88 0 -141 -36h-19v122q80 31 160 31q96 0 169 -53t73 -148q0 -47 -27.5 -91t-70.5 -54q59 -18 94 -66.5t39 -109.5q0 -104 -78 -165.5 t-189 -61.5q-86 0 -180 39zM242 -27l798 1493h142l-797 -1493h-143zM741 199q-23 37 4 73l273 414q29 47 94 47q41 0 66.5 -30.5t25.5 -71.5v-350h74v-119h-74v-162h-125v162h-268q-50 0 -70 37zM883 281h196v297z" />
<glyph unicode="&#xbf;" horiz-adv-x="1017" d="M123 -6q0 96 43 179t119 132q25 18 96.5 54t95.5 61q47 43 47 155v156h240v-182q-8 -139 -53 -217q-10 -18 -22.5 -33.5t-30 -31t-25.5 -23.5t-33 -22.5t-30 -18.5t-36.5 -20.5t-35.5 -18.5q-115 -70 -115 -166q0 -72 61.5 -106.5t139.5 -34.5q166 0 280 102h41v-233 q-186 -109 -348 -109q-168 0 -295 94q-139 113 -139 283zM516 817v256h256v-256h-256z" />
<glyph unicode="&#xc0;" horiz-adv-x="1396" d="M-2 0l496 1323q20 57 73.5 92t117 35t114.5 -35t73 -92l502 -1323h-293l-123 334h-561l-125 -334h-274zM485 578h385l-192 536zM506 1819h207l178 -308h-158z" />
<glyph unicode="&#xc1;" horiz-adv-x="1396" d="M-2 0l496 1323q20 57 73.5 92t117 35t114.5 -35t73 -92l502 -1323h-293l-123 334h-561l-125 -334h-274zM485 578h385l-192 536zM504 1511l176 308h211l-232 -308h-155z" />
<glyph unicode="&#xc2;" horiz-adv-x="1396" d="M-2 0l496 1323q20 57 73.5 92t117 35t114.5 -35t73 -92l502 -1323h-293l-123 334h-561l-125 -334h-274zM416 1513l180 308h205l178 -308h-158l-125 166l-123 -166h-157zM485 578h385l-192 536z" />
<glyph unicode="&#xc3;" horiz-adv-x="1396" d="M-2 0l496 1323q20 57 73.5 92t117 35t114.5 -35t73 -92l502 -1323h-293l-123 334h-561l-125 -334h-274zM328 1630q92 160 241 162q76 0 158 -43q72 -51 113 -51q37 0 56 19.5t40 58.5l133 -72q-88 -162 -240 -162q-70 0 -147 37q-8 4 -28.5 17.5t-30 19.5t-27.5 11t-35 5 q-25 0 -44 -11t-28.5 -23.5t-27.5 -38.5zM485 578h385l-192 536z" />
<glyph unicode="&#xc4;" horiz-adv-x="1396" d="M-2 0l496 1323q20 57 73.5 92t117 35t114.5 -35t73 -92l502 -1323h-293l-123 334h-561l-125 -334h-274zM410 1552v226h221v-226h-221zM485 578h385l-192 536zM762 1552v226h225v-226h-225z" />
<glyph unicode="&#xc5;" horiz-adv-x="1396" d="M-2 0l496 1323q20 57 73.5 92t117 35t114.5 -35t73 -92l502 -1323h-293l-123 334h-561l-125 -334h-274zM485 578h385l-192 536zM500 1667q0 82 57 139.5t139 57.5t140.5 -57.5t58.5 -139.5t-58.5 -138t-140.5 -56t-139 56t-57 138zM610 1667q0 -37 26 -61.5t60 -24.5 q37 0 61.5 24.5t24.5 61.5q0 35 -24.5 60.5t-61.5 25.5q-35 0 -60.5 -25.5t-25.5 -60.5z" />
<glyph unicode="&#xc6;" horiz-adv-x="1878" d="M-51 0l708 1280q39 70 110 112t153 42h927v-256h-598q-27 0 -45 -18.5t-18 -45.5v-240h473v-239h-473v-379h661v-256h-938v305h-487l-172 -305h-301zM557 551h352v616h-6z" />
<glyph unicode="&#xc7;" horiz-adv-x="1226" d="M92 725q0 305 184 516q190 215 517 215q176 -2 376 -74v-262h-32q-154 84 -344 84q-193 4 -310 -133q-106 -133 -106 -354q0 -227 110 -359q117 -133 310 -129q188 0 342 84h37v-260q-201 -74 -377 -76q-305 0 -484 177q-223 211 -223 571zM592 -412l90 121 q74 -51 149 -51q102 0 103 78q0 55 -79 82.5t-148 19.5l45 254l143 -26l-23 -125q211 -35 222 -201q0 -109 -76 -170.5t-182 -61.5q-127 0 -244 80z" />
<glyph unicode="&#xc8;" horiz-adv-x="1208" d="M184 0v1157q0 115 81 196t196 81h717v-250h-652q-27 0 -46 -18.5t-19 -45.5v-246h530v-239h-530v-385h717v-250h-994zM487 1819h207l178 -308h-157z" />
<glyph unicode="&#xc9;" horiz-adv-x="1208" d="M184 0h994v250h-717v385h530v239h-530v246q0 27 19.5 45.5t45.5 18.5h652v250h-717q-115 0 -196 -81t-81 -196v-1157zM633 1511l176 308h211l-232 -308h-155z" />
<glyph unicode="&#xca;" horiz-adv-x="1208" d="M184 0v1157q0 115 81 196t196 81h717v-250h-652q-27 0 -46 -18.5t-19 -45.5v-246h530v-239h-530v-385h717v-250h-994zM424 1513l180 308h205l178 -308h-158l-124 166l-123 -166h-158z" />
<glyph unicode="&#xcb;" horiz-adv-x="1208" d="M184 0v1157q0 115 81 196t196 81h717v-250h-652q-27 0 -46 -18.5t-19 -45.5v-246h530v-239h-530v-385h717v-250h-994zM459 1552v226h221v-226h-221zM811 1552v226h225v-226h-225z" />
<glyph unicode="&#xcc;" horiz-adv-x="665" d="M139 1819h207l178 -308h-157zM195 0v1434h276v-1434h-276z" />
<glyph unicode="&#xcd;" horiz-adv-x="665" d="M139 1511l176 308h211l-231 -308h-156zM195 0h276v1434h-276v-1434z" />
<glyph unicode="&#xce;" horiz-adv-x="665" d="M51 1513l180 308h205l178 -308h-157l-125 166l-123 -166h-158zM195 0v1434h276v-1434h-276z" />
<glyph unicode="&#xcf;" horiz-adv-x="665" d="M45 1552v226h221v-226h-221zM195 0v1434h276v-1434h-276zM397 1552v226h226v-226h-226z" />
<glyph unicode="&#xd0;" horiz-adv-x="1472" d="M31 678v182h174v297q0 115 82 196t196 81h207q205 -2 344.5 -56.5t229.5 -193.5q121 -180 120 -455q0 -313 -147 -512q-168 -217 -526 -217h-506v678h-174zM481 252h195q74 0 123 4t111.5 27.5t99.5 66.5q90 106 90 369q0 221 -64 325q-47 84 -130 111t-204 27h-155 q-27 0 -46.5 -18.5t-19.5 -45.5v-258h350v-182h-350v-426z" />
<glyph unicode="&#xd1;" horiz-adv-x="1564" d="M195 0v1262q0 76 46 131t119 57q121 0 201 -121l559 -876v981h250v-1434h-264l-662 1038v-1038h-249zM412 1630q92 160 241 162q76 0 158 -43q72 -51 113 -51q37 0 56 19.5t40 58.5l133 -72q-88 -162 -240 -162q-70 0 -147 37q-8 4 -28.5 17.5t-30 19.5t-27.5 11t-35 5 q-25 0 -44 -11t-28.5 -23.5t-27.5 -38.5z" />
<glyph unicode="&#xd2;" horiz-adv-x="1544" d="M94 717q0 334 189.5 536.5t488.5 202.5t489.5 -202.5t190.5 -536.5t-190.5 -537t-489.5 -203t-488.5 203t-189.5 537zM379 717q0 -225 106.5 -356.5t286.5 -131.5t287.5 131.5t107.5 356.5q0 207 -109.5 348t-285.5 141q-180 0 -286.5 -132t-106.5 -357zM580 1819h206 l179 -308h-158z" />
<glyph unicode="&#xd3;" horiz-adv-x="1544" d="M94 717q0 334 189.5 536.5t488.5 202.5t489.5 -202.5t190.5 -536.5t-190.5 -537t-489.5 -203t-488.5 203t-189.5 537zM379 717q0 -225 106.5 -356.5t286.5 -131.5t287.5 131.5t107.5 356.5q0 207 -109.5 348t-285.5 141q-180 0 -286.5 -132t-106.5 -357zM657 1511 l177 308h210l-231 -308h-156z" />
<glyph unicode="&#xd4;" horiz-adv-x="1544" d="M94 717q0 334 189.5 536.5t488.5 202.5t489.5 -202.5t190.5 -536.5t-190.5 -537t-489.5 -203t-488.5 203t-189.5 537zM379 717q0 -225 106.5 -356.5t286.5 -131.5t287.5 131.5t107.5 356.5q0 207 -109.5 348t-285.5 141q-180 0 -286.5 -132t-106.5 -357zM489 1513 l181 308h204l179 -308h-158l-125 166l-123 -166h-158z" />
<glyph unicode="&#xd5;" horiz-adv-x="1544" d="M94 717q0 334 189.5 536.5t488.5 202.5t489.5 -202.5t190.5 -536.5t-190.5 -537t-489.5 -203t-488.5 203t-189.5 537zM379 717q0 -225 106.5 -356.5t286.5 -131.5t287.5 131.5t107.5 356.5q0 207 -109.5 348t-285.5 141q-180 0 -286.5 -132t-106.5 -357zM401 1630 q92 160 242 162q76 0 158 -43q72 -51 112 -51q37 0 56.5 19.5t40.5 58.5l133 -72q-88 -162 -240 -162q-70 0 -147 37q-8 4 -28.5 17.5t-30 19.5t-28 11t-34.5 5q-25 0 -44.5 -11t-28.5 -23.5t-27 -38.5z" />
<glyph unicode="&#xd6;" horiz-adv-x="1544" d="M94 717q0 334 189.5 536.5t488.5 202.5t489.5 -202.5t190.5 -536.5t-190.5 -537t-489.5 -203t-488.5 203t-189.5 537zM379 717q0 -225 106.5 -356.5t286.5 -131.5t287.5 131.5t107.5 356.5q0 207 -109.5 348t-285.5 141q-180 0 -286.5 -132t-106.5 -357zM483 1552v226 h222v-226h-222zM836 1552v226h225v-226h-225z" />
<glyph unicode="&#xd7;" horiz-adv-x="1210" d="M174 412l301 299l-301 299l129 129l299 -299l301 299l131 -131l-299 -299l301 -301l-129 -129l-301 301l-301 -301z" />
<glyph unicode="&#xd8;" horiz-adv-x="1619" d="M82 104l170 170q-117 188 -117 443q0 334 189.5 536.5t488.5 202.5q274 0 455 -168l159 160l111 -115l-168 -168q123 -188 123 -448q0 -334 -190.5 -537t-489.5 -203q-274 0 -459 173l-159 -160zM420 717q0 -129 39 -236l614 613q-109 113 -260 112q-180 0 -286.5 -132 t-106.5 -357zM545 340q104 -111 268 -111q180 0 287.5 131.5t107.5 356.5q0 129 -47 239z" />
<glyph unicode="&#xd9;" horiz-adv-x="1468" d="M174 621v813h277v-897q0 -143 53 -220q74 -90 241 -90q164 0 246 107q53 78 53 201v899h250v-813q0 -152 -20.5 -253.5t-87.5 -191.5q-76 -102 -198 -150.5t-255 -48.5q-147 0 -273 59.5t-198 170.5q-88 135 -88 414zM541 1819h207l178 -308h-158z" />
<glyph unicode="&#xda;" horiz-adv-x="1468" d="M174 621q0 -279 88 -414q72 -111 198 -170.5t273 -59.5q133 0 255 48.5t198 150.5q68 90 88 191.5t20 253.5v813h-250v-899q0 -123 -53 -201q-82 -106 -246 -107q-168 0 -241 90q-53 76 -53 220v897h-277v-813zM594 1511l176 308h211l-231 -308h-156z" />
<glyph unicode="&#xdb;" horiz-adv-x="1468" d="M174 621v813h277v-897q0 -143 53 -220q74 -90 241 -90q164 0 246 107q53 78 53 201v899h250v-813q0 -152 -20.5 -253.5t-87.5 -191.5q-76 -102 -198 -150.5t-255 -48.5q-147 0 -273 59.5t-198 170.5q-88 135 -88 414zM453 1513l180 308h205l178 -308h-158l-125 166 l-123 -166h-157z" />
<glyph unicode="&#xdc;" horiz-adv-x="1468" d="M174 621v813h277v-897q0 -143 53 -220q74 -90 241 -90q164 0 246 107q53 78 53 201v899h250v-813q0 -152 -20.5 -253.5t-87.5 -191.5q-76 -102 -198 -150.5t-255 -48.5q-147 0 -273 59.5t-198 170.5q-88 135 -88 414zM444 1552v226h222v-226h-222zM797 1552v226h225v-226 h-225z" />
<glyph unicode="&#xdd;" horiz-adv-x="1228" d="M10 1434h312l305 -625l307 625h-2h287l-465 -885v-549h-277v549zM420 1511l176 308h211l-232 -308h-155z" />
<glyph unicode="&#xde;" horiz-adv-x="1265" d="M195 0v1434h270v-258h162q20 -2 85.5 -4.5t93.5 -5.5t77 -14t90 -32q106 -55 163.5 -163.5t55.5 -233.5q0 -258 -188 -379q-135 -84 -373 -84h-166v-260h-270zM465 504h182q100 0 162 33q106 47 100 194q0 117 -69 164q-14 10 -33 17.5t-31 10.5t-38.5 5t-35.5 2h-38h-33 h-166v-426z" />
<glyph unicode="&#xdf;" horiz-adv-x="1167" d="M154 0v1090q8 205 127 309q123 109 323 104q178 2 304 -102.5t126 -294.5q0 -98 -60.5 -183t-137.5 -110q125 -41 187 -142.5t62 -240.5q0 -190 -141 -322.5t-334 -132.5q-72 0 -127 17v225h41q33 -12 72 -12q102 2 161.5 69.5t59.5 176.5q2 106 -76.5 166.5t-187.5 66.5 h-23v229h21q213 4 213 189q-4 168 -168 170q-78 2 -128 -55.5t-54 -143.5v-1073h-260z" />
<glyph unicode="&#xe0;" horiz-adv-x="1153" d="M84 328q-2 141 88 235t221 113l352 51q-6 70 -88 105.5t-155 35.5q-154 0 -285 -63h-29v237q190 53 318 54q207 0 347 -87t146 -276v-733h-249v98q-117 -123 -289 -123q-160 0 -266.5 98.5t-110.5 254.5zM346 342q0 -70 45 -103.5t117 -33.5q111 0 231 74v241 q-39 -8 -129 -20.5t-139 -22.5q-125 -24 -125 -135zM383 1458h207l178 -307h-158z" />
<glyph unicode="&#xe1;" horiz-adv-x="1153" d="M84 328q4 -156 110.5 -254.5t266.5 -98.5q172 0 289 123v-98h249v733q-6 188 -146 275.5t-347 87.5q-127 0 -318 -54v-237h29q131 63 285 63q74 0 155.5 -35.5t87.5 -105.5l-352 -51q-131 -18 -221 -112.5t-88 -235.5zM346 342q0 111 125 135q49 10 139 22.5t129 20.5 v-241q-121 -74 -231 -74q-72 0 -117 33.5t-45 103.5zM383 1151l176 307h211l-231 -307h-156z" />
<glyph unicode="&#xe2;" horiz-adv-x="1153" d="M84 328q-2 141 88 235t221 113l352 51q-6 70 -88 105.5t-155 35.5q-154 0 -285 -63h-29v237q190 53 318 54q207 0 347 -87t146 -276v-733h-249v98q-117 -123 -289 -123q-160 0 -266.5 98.5t-110.5 254.5zM295 1153l180 307h205l178 -307h-158l-125 166l-122 -166h-158z M346 342q0 -70 45 -103.5t117 -33.5q111 0 231 74v241q-39 -8 -129 -20.5t-139 -22.5q-125 -24 -125 -135z" />
<glyph unicode="&#xe3;" horiz-adv-x="1153" d="M84 328q-2 141 88 235t221 113l352 51q-6 70 -88 105.5t-155 35.5q-154 0 -285 -63h-29v237q190 53 318 54q207 0 347 -87t146 -276v-733h-249v98q-117 -123 -289 -123q-160 0 -266.5 98.5t-110.5 254.5zM205 1270q92 160 241 162q76 0 158 -43q72 -51 113 -52 q37 0 56.5 19.5t39.5 58.5l133 -72q-88 -162 -239 -161q-70 0 -148 37q-8 4 -28.5 17t-29.5 19.5t-27.5 11.5t-35.5 5q-25 0 -44 -11.5t-28.5 -23.5t-27.5 -39zM346 342q0 -70 45 -103.5t117 -33.5q111 0 231 74v241q-39 -8 -129 -20.5t-139 -22.5q-125 -24 -125 -135z" />
<glyph unicode="&#xe4;" horiz-adv-x="1153" d="M84 328q-2 141 88 235t221 113l352 51q-6 70 -88 105.5t-155 35.5q-154 0 -285 -63h-29v237q190 53 318 54q207 0 347 -87t146 -276v-733h-249v98q-117 -123 -289 -123q-160 0 -266.5 98.5t-110.5 254.5zM287 1192v225h221v-225h-221zM346 342q0 -70 45 -103.5t117 -33.5 q111 0 231 74v241q-39 -8 -129 -20.5t-139 -22.5q-125 -24 -125 -135zM639 1192v225h225v-225h-225z" />
<glyph unicode="&#xe5;" horiz-adv-x="1153" d="M84 328q4 -156 110.5 -254.5t266.5 -98.5q172 0 289 123v-98h249v733q-6 188 -146 275.5t-347 87.5q-127 0 -318 -54v-237h29q131 63 285 63q74 0 155.5 -35.5t87.5 -105.5l-352 -51q-131 -18 -221 -112.5t-88 -235.5zM346 342q0 111 125 135q49 10 139 22.5t129 20.5 v-241q-121 -74 -231 -74q-72 0 -117 33.5t-45 103.5zM379 1307q0 82 56.5 139t139.5 57q82 0 140.5 -57t58.5 -139t-58.5 -138.5t-140 -56.5t-139 56.5t-57.5 138.5zM489 1307q0 -37 26 -61.5t60 -24.5q37 0 62 24.5t25 61.5q0 35 -25 60.5t-62 25.5q-35 0 -60.5 -25.5 t-25.5 -60.5z" />
<glyph unicode="&#xe6;" horiz-adv-x="1775" d="M84 328q-2 141 88 235t221 113l352 51q-6 70 -88 105.5t-155 35.5q-154 0 -285 -63h-29v237q190 53 318 54q252 0 375 -138q113 137 311 138q311 0 426 -271q61 -150 53 -391h-702q18 -119 113.5 -179t217.5 -56q176 4 283 67h33v-243q-152 -45 -336 -46q-246 0 -408 148 q-76 -59 -186.5 -103.5t-224.5 -46.5q-160 -2 -266.5 97.5t-110.5 255.5zM346 342q0 -70 45 -103.5t117 -33.5q111 0 231 74q-45 100 -49 233q-23 -4 -99.5 -15.5t-119.5 -19.5q-125 -24 -125 -135zM971 649h436q-20 219 -211 221q-98 0 -156.5 -62.5t-68.5 -158.5z" />
<glyph unicode="&#xe7;" horiz-adv-x="995" d="M82 537q0 242 137 395q143 164 383 164q154 0 330 -72v-231h-33q-90 72 -281 71q-139 0 -206 -90q-61 -84 -62 -239q0 -113 45 -195q72 -131 219 -131q178 0 289 61h31v-221q-145 -72 -324 -72q-129 0 -242.5 59.5t-185.5 162.5q-100 141 -100 338zM418 -412l90 121 q74 -51 149 -51q102 0 103 78q0 55 -79 82.5t-149 19.5l46 254l143 -26l-23 -125q211 -35 222 -201q0 -109 -76 -170.5t-182 -61.5q-127 0 -244 80z" />
<glyph unicode="&#xe8;" horiz-adv-x="1167" d="M82 530q6 225 119 381q141 184 383 185q150 0 260 -69t166 -202q61 -150 53 -391h-703q18 -119 113.5 -179t218.5 -56q176 4 283 67h33v-243q-152 -45 -336 -46q-268 0 -426 144q-164 149 -164 409zM362 649h437q-20 219 -211 221q-98 0 -157 -62.5t-69 -158.5zM391 1458 h207l178 -307h-158z" />
<glyph unicode="&#xe9;" horiz-adv-x="1167" d="M82 530q6 225 119 381q141 184 383 185q150 0 260 -69t166 -202q61 -150 53 -391h-703q18 -119 113.5 -179t218.5 -56q176 4 283 67h33v-243q-152 -45 -336 -46q-268 0 -426 144q-164 149 -164 409zM362 649h437q-20 219 -211 221q-98 0 -157 -62.5t-69 -158.5zM438 1151 l176 307h211l-231 -307h-156z" />
<glyph unicode="&#xea;" horiz-adv-x="1167" d="M82 530q6 225 119 381q141 184 383 185q150 0 260 -69t166 -202q61 -150 53 -391h-703q18 -119 113.5 -179t218.5 -56q176 4 283 67h33v-243q-152 -45 -336 -46q-268 0 -426 144q-164 149 -164 409zM301 1153l180 307h205l178 -307h-157l-125 166l-123 -166h-158z M362 649h437q-20 219 -211 221q-98 0 -157 -62.5t-69 -158.5z" />
<glyph unicode="&#xeb;" horiz-adv-x="1167" d="M82 530q6 225 119 381q141 184 383 185q150 0 260 -69t166 -202q61 -150 53 -391h-703q18 -119 113.5 -179t218.5 -56q176 4 283 67h33v-243q-152 -45 -336 -46q-268 0 -426 144q-164 149 -164 409zM295 1192v225h221v-225h-221zM362 649h437q-20 219 -211 221 q-98 0 -157 -62.5t-69 -158.5zM647 1192v225h225v-225h-225z" />
<glyph unicode="&#xec;" horiz-adv-x="587" d="M102 1458h207l178 -307h-157zM164 0v1073h260v-1073h-260z" />
<glyph unicode="&#xed;" horiz-adv-x="587" d="M100 1151l176 307h211l-231 -307h-156zM164 0v1073h260v-1073h-260z" />
<glyph unicode="&#xee;" horiz-adv-x="587" d="M12 1153l181 307h204l178 -307h-157l-125 166l-123 -166h-158zM164 0v1073h260v-1073h-260z" />
<glyph unicode="&#xef;" horiz-adv-x="587" d="M6 1192v225h221v-225h-221zM164 0v1073h260v-1073h-260zM358 1192v225h226v-225h-226z" />
<glyph unicode="&#xf0;" horiz-adv-x="1261" d="M102 524q0 219 115 375q139 166 369 184q115 0 159 -41q-61 94 -176 189l-299 -109l-49 135l213 78q-176 115 -313 162h434q61 -37 111 -74l213 76l53 -137l-139 -51q162 -154 259 -362t95 -431q0 -217 -144.5 -376.5t-373.5 -159.5q-145 0 -263 63.5t-186 179.5 q-78 135 -78 299zM360 526q0 -127 73 -218t198 -91q123 0 191.5 95.5t68.5 226.5t-68.5 225t-199.5 94q-127 0 -195 -97.5t-68 -234.5z" />
<glyph unicode="&#xf1;" horiz-adv-x="1265" d="M164 0v1073h252v-69q184 92 313 92q170 0 276.5 -111t106.5 -289v-696h-260v670q2 82 -39 134t-123 52q-137 0 -266 -88v-768h-260zM262 1270q92 160 242 162q76 0 158 -43q72 -51 112 -52q37 0 56.5 19.5t39.5 58.5l134 -72q-88 -162 -240 -161q-70 0 -148 37 q-8 4 -28.5 17t-29.5 19.5t-27.5 11.5t-34.5 5q-25 0 -44.5 -11.5t-28.5 -23.5t-28 -39z" />
<glyph unicode="&#xf2;" d="M82 537q0 254 142.5 406.5t371.5 152.5t369.5 -152.5t140.5 -406.5t-140.5 -407t-369.5 -153t-371.5 153t-142.5 407zM350 536.5q0 -149.5 66.5 -238.5t177.5 -89t177.5 89t66.5 238.5t-66.5 238.5t-177.5 89t-177.5 -89t-66.5 -238.5zM401 1458h207l178 -307h-157z" />
<glyph unicode="&#xf3;" d="M82 537q0 254 142.5 406.5t371.5 152.5t369.5 -152.5t140.5 -406.5t-140.5 -407t-369.5 -153t-371.5 153t-142.5 407zM350 536.5q0 -149.5 66.5 -238.5t177.5 -89t177.5 89t66.5 238.5t-66.5 238.5t-177.5 89t-177.5 -89t-66.5 -238.5zM401 1151l177 307h210l-231 -307 h-156z" />
<glyph unicode="&#xf4;" d="M82 537q0 254 142.5 406.5t371.5 152.5t369.5 -152.5t140.5 -406.5t-140.5 -407t-369.5 -153t-371.5 153t-142.5 407zM313 1153l181 307h204l179 -307h-158l-125 166l-123 -166h-158zM350 536.5q0 -149.5 66.5 -238.5t177.5 -89t177.5 89t66.5 238.5t-66.5 238.5 t-177.5 89t-177.5 -89t-66.5 -238.5z" />
<glyph unicode="&#xf5;" d="M82 537q0 254 142.5 406.5t371.5 152.5t369.5 -152.5t140.5 -406.5t-140.5 -407t-369.5 -153t-371.5 153t-142.5 407zM223 1270q92 160 242 162q76 0 158 -43q72 -51 112 -52q37 0 56.5 19.5t39.5 58.5l134 -72q-88 -162 -240 -161q-70 0 -147 37q-8 4 -29 17t-30 19.5 t-27.5 11.5t-34.5 5q-25 0 -44.5 -11.5t-28.5 -23.5t-28 -39zM350 536.5q0 -149.5 66.5 -238.5t177.5 -89t177.5 89t66.5 238.5t-66.5 238.5t-177.5 89t-177.5 -89t-66.5 -238.5z" />
<glyph unicode="&#xf6;" d="M82 537q0 254 142.5 406.5t371.5 152.5t369.5 -152.5t140.5 -406.5t-140.5 -407t-369.5 -153t-371.5 153t-142.5 407zM305 1192v225h221v-225h-221zM350 536.5q0 -149.5 66.5 -238.5t177.5 -89t177.5 89t66.5 238.5t-66.5 238.5t-177.5 89t-177.5 -89t-66.5 -238.5z M657 1192v225h226v-225h-226z" />
<glyph unicode="&#xf7;" horiz-adv-x="1222" d="M133 444v183h957v-183h-957zM475 0v274h273v-274h-273zM475 803v270h273v-270h-273z" />
<glyph unicode="&#xf8;" horiz-adv-x="1253" d="M82 96l123 123q-78 137 -78 318q0 254 142.5 406.5t371.5 152.5q193 0 328 -113l100 100l102 -104l-106 -107q86 -139 86 -335q0 -254 -140.5 -407t-369.5 -153q-207 0 -344 125l-111 -110zM395 537q0 -61 13 -115l380 381q-66 61 -149 61q-111 0 -177.5 -88.5 t-66.5 -238.5zM477 283q63 -74 162 -74q111 0 177.5 89t66.5 239q0 74 -19 135z" />
<glyph unicode="&#xf9;" horiz-adv-x="1198" d="M115 375v698h260v-672q-2 -82 39 -134t123 -52q137 0 266 88v770h260v-1073h-252v68q-184 -92 -313 -93q-168 0 -275.5 115t-107.5 285zM406 1458h206l179 -307h-158z" />
<glyph unicode="&#xfa;" horiz-adv-x="1198" d="M115 375v698h260v-672q-2 -82 39 -134t123 -52q137 0 266 88v770h260v-1073h-252v68q-184 -92 -313 -93q-168 0 -275.5 115t-107.5 285zM406 1151l176 307h211l-232 -307h-155z" />
<glyph unicode="&#xfb;" horiz-adv-x="1198" d="M115 375v698h260v-672q-2 -82 39 -134t123 -52q137 0 266 88v770h260v-1073h-252v68q-184 -92 -313 -93q-168 0 -275.5 115t-107.5 285zM317 1153l181 307h204l179 -307h-158l-125 166l-123 -166h-158z" />
<glyph unicode="&#xfc;" horiz-adv-x="1198" d="M115 375v698h260v-672q-2 -82 39 -134t123 -52q137 0 266 88v770h260v-1073h-252v68q-184 -92 -313 -93q-168 0 -275.5 115t-107.5 285zM309 1192v225h221v-225h-221zM662 1192v225h225v-225h-225z" />
<glyph unicode="&#xfd;" horiz-adv-x="1134" d="M10 1073h285l305 -721l262 721h242l-473 -1304q-57 -150 -166 -205.5t-303 -55.5h-47v226q162 -2 219 19.5t94 121.5l49 135zM373 1151l176 307h211l-232 -307h-155z" />
<glyph unicode="&#xfe;" horiz-adv-x="1179" d="M164 -479v1976h246v-463q94 55 219 56q229 -10 356 -170q111 -137 111 -369q0 -260 -111 -401q-127 -158 -356 -168q-129 0 -219 53v-514h-246zM410 246q104 -25 188 -25q131 0 195 94q47 78 47 222q0 141 -47 217q-66 94 -195 94q-74 0 -188 -27v-575z" />
<glyph unicode="&#xff;" horiz-adv-x="1134" d="M10 1073h285l305 -721l262 721h242l-473 -1304q-57 -150 -166 -205.5t-303 -55.5h-47v226q162 -2 219 19.5t94 121.5l49 135zM303 1192v225h221v-225h-221zM655 1192v225h226v-225h-226z" />
<glyph unicode="&#x152;" horiz-adv-x="2027" d="M94 709q-4 311 156 520q80 106 207 166.5t254 60.5q117 0 224 -43t175 -125q41 78 100.5 112t165.5 34h621v-256h-596q-27 0 -46.5 -18.5t-19.5 -45.5v-240h475v-239h-475v-381h662v-254h-934v104q-139 -127 -352 -127q-266 4 -437 199q-184 214 -180 533zM379 702 q0 -186 89 -329.5t255 -143.5q96 4 165.5 51.5t105.5 122t52.5 155.5t16.5 171q-10 203 -91 340t-255 135q-92 0 -162 -49t-105.5 -127t-53 -160t-17.5 -166z" />
<glyph unicode="&#x153;" horiz-adv-x="1908" d="M82 537q0 254 142.5 406.5t371.5 152.5q236 0 375 -176q131 176 354 176q150 0 260.5 -69t165.5 -202q61 -150 53 -391h-702q18 -119 113.5 -179t218.5 -56q176 4 282 67h33v-243q-152 -45 -336 -46q-276 0 -440 177q-125 -176 -377 -177q-229 0 -371.5 153t-142.5 407z M350 536.5q0 -149.5 66.5 -238.5t177.5 -89t177.5 89t66.5 238.5t-66.5 238.5t-177.5 89t-177.5 -89t-66.5 -238.5zM1104 649h436q-20 219 -211 221q-98 0 -156.5 -62.5t-68.5 -158.5z" />
<glyph unicode="&#x178;" horiz-adv-x="1228" d="M10 1434h312l305 -625l307 625h-2h287l-465 -885v-549h-277v549zM326 1552v226h221v-226h-221zM678 1552v226h225v-226h-225z" />
<glyph unicode="&#x2c6;" horiz-adv-x="747" d="M92 1153l180 307h205l178 -307h-157l-125 166l-123 -166h-158z" />
<glyph unicode="&#x2dc;" horiz-adv-x="925" d="M92 1270q92 160 242 162q76 0 158 -43q72 -51 112 -52q37 0 56.5 19.5t39.5 58.5l134 -72q-88 -162 -240 -161q-70 0 -148 37q-8 4 -28.5 17t-29.5 19.5t-27.5 11.5t-34.5 5q-25 0 -44.5 -11.5t-28.5 -23.5t-28 -39z" />
<glyph unicode="&#x2000;" horiz-adv-x="931" />
<glyph unicode="&#x2001;" horiz-adv-x="1863" />
<glyph unicode="&#x2002;" horiz-adv-x="931" />
<glyph unicode="&#x2003;" horiz-adv-x="1863" />
<glyph unicode="&#x2004;" horiz-adv-x="620" />
<glyph unicode="&#x2005;" horiz-adv-x="464" />
<glyph unicode="&#x2006;" horiz-adv-x="309" />
<glyph unicode="&#x2007;" horiz-adv-x="309" />
<glyph unicode="&#x2008;" horiz-adv-x="231" />
<glyph unicode="&#x2009;" horiz-adv-x="372" />
<glyph unicode="&#x200a;" horiz-adv-x="102" />
<glyph unicode="&#x2010;" horiz-adv-x="985" d="M133 428v219h719v-219h-719z" />
<glyph unicode="&#x2011;" horiz-adv-x="985" d="M133 428v219h719v-219h-719z" />
<glyph unicode="&#x2012;" horiz-adv-x="985" d="M133 428v219h719v-219h-719z" />
<glyph unicode="&#x2013;" horiz-adv-x="1054" d="M10 440v187h1034v-187h-1034z" />
<glyph unicode="&#x2014;" horiz-adv-x="2013" d="M10 440v187h1993v-187h-1993z" />
<glyph unicode="&#x2018;" horiz-adv-x="677" d="M133 858l252 576h160l-152 -576h-260z" />
<glyph unicode="&#x2019;" horiz-adv-x="677" d="M133 858l152 576h260l-252 -576h-160z" />
<glyph unicode="&#x201a;" horiz-adv-x="677" d="M133 -303l152 575h260l-252 -575h-160z" />
<glyph unicode="&#x201c;" horiz-adv-x="1073" d="M133 858l252 576h160l-152 -576h-260zM528 858l252 576h160l-152 -576h-260z" />
<glyph unicode="&#x201d;" horiz-adv-x="1073" d="M133 858l152 576h260l-252 -576h-160zM528 858l152 576h260l-252 -576h-160z" />
<glyph unicode="&#x201e;" horiz-adv-x="1073" d="M133 -303l152 575h260l-252 -575h-160zM528 -303l152 575h260l-252 -575h-160z" />
<glyph unicode="&#x2022;" horiz-adv-x="655" d="M133 713q0 80 57.5 137t137.5 57t137 -57t57 -137t-57 -137.5t-137 -57.5t-137.5 57.5t-57.5 137.5z" />
<glyph unicode="&#x2026;" horiz-adv-x="1908" d="M195 0v272h274v-272h-274zM817 0v272h275v-272h-275zM1440 0v272h274v-272h-274z" />
<glyph unicode="&#x202f;" horiz-adv-x="372" />
<glyph unicode="&#x2039;" horiz-adv-x="835" d="M133 535l359 487h210l-331 -487l331 -490h-210z" />
<glyph unicode="&#x203a;" horiz-adv-x="835" d="M133 45l332 490l-332 487h211l358 -487l-358 -490h-211z" />
<glyph unicode="&#x205f;" horiz-adv-x="464" />
<glyph unicode="&#x20ac;" horiz-adv-x="1277" d="M82 498l33 157h139q0 106 2 127h-119l31 160h106q35 154 101 252q164 262 465 262q211 0 387 -94l-47 -238h-41q-115 80 -271 80q-117 0 -194.5 -74.5t-112.5 -187.5h586l-33 -160h-577q-8 -78 0 -127h553l-29 -157h-500q35 -119 114 -194t191 -75q170 0 281 93h45v-265 q-160 -80 -326 -80q-150 0 -277.5 66t-205.5 184q-74 113 -109 271h-192z" />
<glyph unicode="&#x2122;" horiz-adv-x="1792" d="M72 1280h229v-682h156v682h229v152h-614v-152zM770 598l39 733q4 43 30.5 74t69.5 33q41 2 75 -23.5t48 -62.5l174 -533l168 533q33 86 113 86q49 0 79.5 -29t32.5 -78l39 -733h-157l-21 559l-180 -559h-154l-180 547l-31 -547h-145z" />
<glyph unicode="&#xe000;" horiz-adv-x="1075" d="M0 1075h1075v-1075h-1075v1075z" />
<glyph unicode="&#xfb01;" horiz-adv-x="1175" d="M10 848v225h115v31q0 199 90 298t281 99q39 0 92 -9t87 -18.5t34 -11.5v-229h-35q-72 39 -152 39q-57 0 -97 -34t-40 -99v-66h625v-1073h-260v848h-365v-848h-260v848h-115zM756 1178v256h256v-256h-256z" />
<glyph unicode="&#xfb02;" horiz-adv-x="1265" d="M10 848v225h115v31q0 195 104.5 296t298.5 101q94 0 222.5 -34.5t205.5 -86.5v-1046q0 -127 142 -127q57 -2 155 47h33v-229q-137 -47 -219 -48q-371 0 -371 402v854q-78 43 -174 39q-57 0 -97 -34t-40 -99v-66h252v-225h-252v-848h-260v848h-115z" />
<glyph unicode="&#xfb03;" horiz-adv-x="1998" d="M1573 0v1073h260v-1073h-260zM1573 1178v256h262v-256h-262zM736 848v225h114v31q0 199 90.5 298t280.5 99q51 0 219 -39v-229h-35q-72 39 -149 39h-8q-57 0 -97 -34t-40 -99v-66h272v-225h-272v-848h-261v848h-114zM31 848v225h114v31q0 199 90.5 298t280.5 99 q51 0 219 -39v-229h-35q-72 39 -149 39h-8q-57 0 -97 -34t-40 -99v-66h272v-225h-272v-848h-261v848h-114z" />
<glyph unicode="&#xfb04;" horiz-adv-x="2131" d="M1563 379v1120h260v-1165q0 -127 141 -127h5q57 0 151 47h32v-229q-137 -47 -219 -48q-370 1 -370 402zM736 848v225h114v31q0 199 90.5 298t280.5 99q51 0 219 -39v-229h-35q-72 39 -149 39h-8q-57 0 -97 -34t-40 -99v-66h272v-225h-272v-848h-261v848h-114zM31 848v225 h114v31q0 199 90.5 298t280.5 99q51 0 219 -39v-229h-35q-72 39 -149 39h-8q-57 0 -97 -34t-40 -99v-66h272v-225h-272v-848h-261v848h-114z" />
</font>
</defs>
</svg>
